<svg width="21" height="24" viewBox="0 0 21 24" fill="none" xmlns="http://www.w3.org/2000/svg">
<path d="M16.625 7L15.8664 19.142C15.8349 19.6466 15.6374 20.1188 15.3135 20.4636C14.9896 20.8083 14.5634 21 14.1208 21H6.87925C6.43662 21 6.01043 20.8083 5.68652 20.4636C5.36262 20.1188 5.16505 19.6466 5.13363 19.142L4.375 7M8.75 11V17M12.25 11V17M13.125 7V4C13.125 3.73478 13.0328 3.48043 12.8687 3.29289C12.7046 3.10536 12.4821 3 12.25 3H8.75C8.51794 3 8.29538 3.10536 8.13128 3.29289C7.96719 3.48043 7.875 3.73478 7.875 4V7M3.5 7H17.5" stroke="black" stroke-width="2" stroke-linecap="round" stroke-linejoin="round"/>
</svg>
